<svg width="32" height="32" viewBox="0 0 32 32" fill="none" xmlns="http://www.w3.org/2000/svg">
<rect width="32" height="32" rx="16" fill="white"/>
<path d="M14.3246 8.31731C14.751 6.5609 17.249 6.5609 17.6754 8.31731C17.9508 9.45193 19.2507 9.99038 20.2478 9.38285C21.7913 8.44239 23.5576 10.2087 22.6172 11.7522C22.0096 12.7493 22.5481 14.0492 23.6827 14.3246C25.4391 14.751 25.4391 17.249 23.6827 17.6754C22.5481 17.9508 22.0096 19.2507 22.6172 20.2478C23.5576 21.7913 21.7913 23.5576 20.2478 22.6172C19.2507 22.0096 17.9508 22.5481 17.6754 23.6827C17.249 25.4391 14.751 25.4391 14.3246 23.6827C14.0492 22.5481 12.7493 22.0096 11.7522 22.6172C10.2087 23.5576 8.44239 21.7913 9.38285 20.2478C9.99038 19.2507 9.45193 17.9508 8.31731 17.6754C6.5609 17.249 6.5609 14.751 8.31731 14.3246C9.45193 14.0492 9.99037 12.7493 9.38285 11.7522C8.44239 10.2087 10.2087 8.44239 11.7522 9.38285C12.7493 9.99037 14.0492 9.45193 14.3246 8.31731Z" stroke="#9CA3AF" stroke-width="2" stroke-linecap="round" stroke-linejoin="round"/>
<path d="M19 16C19 17.6569 17.6569 19 16 19C14.3431 19 13 17.6569 13 16C13 14.3431 14.3431 13 16 13C17.6569 13 19 14.3431 19 16Z" stroke="#9CA3AF" stroke-width="2" stroke-linecap="round" stroke-linejoin="round"/>
</svg>
